<svg width="120" height="360" viewBox="0 0 120 360" fill="none" xmlns="http://www.w3.org/2000/svg">
    <g opacity="0.18" stroke="#2A211B" stroke-width="1.4">
        <path d="M60 18 L72 30 L60 42 L48 30 Z" />
        <path d="M60 42 L60 72" />
        <path d="M60 96 L72 108 L60 120 L48 108 Z" />
        <path d="M60 120 L60 150" />
        <path d="M60 174 L72 186 L60 198 L48 186 Z" />
        <path d="M60 198 L60 228" />
        <path d="M60 252 L72 264 L60 276 L48 264 Z" />
        <path d="M60 276 L60 306" />
        <path d="M60 330 L72 342 L60 354 L48 342 Z" />

        <path d="M36 30 L48 42 L36 54 L24 42 Z" />
        <path d="M84 30 L96 42 L84 54 L72 42 Z" />

        <path d="M36 186 L48 198 L36 210 L24 198 Z" />
        <path d="M84 186 L96 198 L84 210 L72 198 Z" />
    </g>
</svg>
